<svg width="40" height="40" viewBox="0 0 40 40" fill="none" xmlns="http://www.w3.org/2000/svg">
  <defs>
    <linearGradient id="logoGradient" x1="0%" y1="0%" x2="100%" y2="100%">
      <stop offset="0%" style="stop-color:#6366f1;stop-opacity:1" />
      <stop offset="100%" style="stop-color:#8b5cf6;stop-opacity:1" />
    </linearGradient>
  </defs>
  
  <!-- Background circle -->
  <rect width="40" height="40" rx="8" fill="url(#logoGradient)"/>
  
  <!-- Game controller icon -->
  <path d="M20 12C15 12 12 14 12 16C12 18 10 20 10 22C10 24 11 26 13 26C15 26 16 24 16 22L17 20H23L24 22C24 24 25 26 27 26C29 26 30 24 30 22C30 20 28 18 28 16C28 14 25 12 20 12Z" fill="white"/>
  
  <!-- D-pad -->
  <circle cx="15" cy="20" r="1.5" fill="url(#logoGradient)"/>
  
  <!-- Buttons -->
  <circle cx="25" cy="20" r="1.5" fill="url(#logoGradient)"/>
  
  <!-- Gold coin accent -->
  <circle cx="20" cy="18" r="2" fill="#fbbf24" opacity="0.8"/>
</svg>
